<mxfile host="app.diagrams.net" modified="2021-11-24T21:40:36.445Z" agent="5.0 (Windows NT 10.0; Win64; x64) AppleWebKit/537.36 (KHTML, like Gecko) Chrome/96.0.4664.45 Safari/537.36" etag="qMCDWfpXj8YcDy8JgEkm" version="14.8.0" type="github" pages="2">
  <diagram id="CFHfeKTsn5aGknnK-Q55" name="Page-1">
    <mxGraphModel dx="1221" dy="634" grid="1" gridSize="10" guides="1" tooltips="1" connect="1" arrows="1" fold="1" page="1" pageScale="1" pageWidth="827" pageHeight="1169" math="0" shadow="0">
      <root>
        <mxCell id="0" />
        <mxCell id="1" parent="0" />
        <mxCell id="uGX6nD3mYrhn2c0A557F-1" value="" style="whiteSpace=wrap;html=1;aspect=fixed;" vertex="1" parent="1">
          <mxGeometry x="30" y="20" width="640" height="640" as="geometry" />
        </mxCell>
        <mxCell id="uGX6nD3mYrhn2c0A557F-4" value="" style="whiteSpace=wrap;html=1;aspect=fixed;" vertex="1" parent="1">
          <mxGeometry x="30" y="20" width="80" height="80" as="geometry" />
        </mxCell>
        <mxCell id="uGX6nD3mYrhn2c0A557F-5" value="" style="whiteSpace=wrap;html=1;aspect=fixed;" vertex="1" parent="1">
          <mxGeometry x="110" y="20" width="80" height="80" as="geometry" />
        </mxCell>
        <mxCell id="uGX6nD3mYrhn2c0A557F-6" value="" style="whiteSpace=wrap;html=1;aspect=fixed;" vertex="1" parent="1">
          <mxGeometry x="190" y="20" width="80" height="80" as="geometry" />
        </mxCell>
        <mxCell id="uGX6nD3mYrhn2c0A557F-7" value="" style="whiteSpace=wrap;html=1;aspect=fixed;" vertex="1" parent="1">
          <mxGeometry x="270" y="20" width="80" height="80" as="geometry" />
        </mxCell>
        <mxCell id="uGX6nD3mYrhn2c0A557F-8" value="" style="whiteSpace=wrap;html=1;aspect=fixed;" vertex="1" parent="1">
          <mxGeometry x="350" y="20" width="80" height="80" as="geometry" />
        </mxCell>
        <mxCell id="uGX6nD3mYrhn2c0A557F-9" value="" style="whiteSpace=wrap;html=1;aspect=fixed;" vertex="1" parent="1">
          <mxGeometry x="430" y="20" width="80" height="80" as="geometry" />
        </mxCell>
        <mxCell id="uGX6nD3mYrhn2c0A557F-10" value="" style="whiteSpace=wrap;html=1;aspect=fixed;" vertex="1" parent="1">
          <mxGeometry x="510" y="20" width="80" height="80" as="geometry" />
        </mxCell>
        <mxCell id="uGX6nD3mYrhn2c0A557F-11" value="" style="whiteSpace=wrap;html=1;aspect=fixed;" vertex="1" parent="1">
          <mxGeometry x="590" y="20" width="80" height="80" as="geometry" />
        </mxCell>
        <mxCell id="uGX6nD3mYrhn2c0A557F-12" value="" style="whiteSpace=wrap;html=1;aspect=fixed;" vertex="1" parent="1">
          <mxGeometry x="30" y="100" width="80" height="80" as="geometry" />
        </mxCell>
        <mxCell id="uGX6nD3mYrhn2c0A557F-13" value="" style="whiteSpace=wrap;html=1;aspect=fixed;" vertex="1" parent="1">
          <mxGeometry x="30" y="180" width="80" height="80" as="geometry" />
        </mxCell>
        <mxCell id="uGX6nD3mYrhn2c0A557F-14" value="" style="whiteSpace=wrap;html=1;aspect=fixed;" vertex="1" parent="1">
          <mxGeometry x="30" y="260" width="80" height="80" as="geometry" />
        </mxCell>
        <mxCell id="uGX6nD3mYrhn2c0A557F-15" value="" style="whiteSpace=wrap;html=1;aspect=fixed;" vertex="1" parent="1">
          <mxGeometry x="30" y="340" width="80" height="80" as="geometry" />
        </mxCell>
        <mxCell id="uGX6nD3mYrhn2c0A557F-16" value="" style="whiteSpace=wrap;html=1;aspect=fixed;" vertex="1" parent="1">
          <mxGeometry x="30" y="420" width="80" height="80" as="geometry" />
        </mxCell>
        <mxCell id="uGX6nD3mYrhn2c0A557F-17" value="" style="whiteSpace=wrap;html=1;aspect=fixed;" vertex="1" parent="1">
          <mxGeometry x="30" y="500" width="80" height="80" as="geometry" />
        </mxCell>
        <mxCell id="uGX6nD3mYrhn2c0A557F-18" value="" style="whiteSpace=wrap;html=1;aspect=fixed;" vertex="1" parent="1">
          <mxGeometry x="30" y="580" width="80" height="80" as="geometry" />
        </mxCell>
        <mxCell id="uGX6nD3mYrhn2c0A557F-19" value="" style="whiteSpace=wrap;html=1;aspect=fixed;" vertex="1" parent="1">
          <mxGeometry x="110" y="100" width="80" height="80" as="geometry" />
        </mxCell>
        <mxCell id="uGX6nD3mYrhn2c0A557F-20" value="" style="whiteSpace=wrap;html=1;aspect=fixed;" vertex="1" parent="1">
          <mxGeometry x="190" y="100" width="80" height="80" as="geometry" />
        </mxCell>
        <mxCell id="uGX6nD3mYrhn2c0A557F-21" value="" style="whiteSpace=wrap;html=1;aspect=fixed;" vertex="1" parent="1">
          <mxGeometry x="270" y="100" width="80" height="80" as="geometry" />
        </mxCell>
        <mxCell id="uGX6nD3mYrhn2c0A557F-22" value="" style="whiteSpace=wrap;html=1;aspect=fixed;" vertex="1" parent="1">
          <mxGeometry x="350" y="100" width="80" height="80" as="geometry" />
        </mxCell>
        <mxCell id="uGX6nD3mYrhn2c0A557F-23" value="" style="whiteSpace=wrap;html=1;aspect=fixed;" vertex="1" parent="1">
          <mxGeometry x="430" y="100" width="80" height="80" as="geometry" />
        </mxCell>
        <mxCell id="uGX6nD3mYrhn2c0A557F-24" value="" style="whiteSpace=wrap;html=1;aspect=fixed;" vertex="1" parent="1">
          <mxGeometry x="510" y="100" width="80" height="80" as="geometry" />
        </mxCell>
        <mxCell id="uGX6nD3mYrhn2c0A557F-25" value="" style="whiteSpace=wrap;html=1;aspect=fixed;" vertex="1" parent="1">
          <mxGeometry x="590" y="100" width="80" height="80" as="geometry" />
        </mxCell>
        <mxCell id="uGX6nD3mYrhn2c0A557F-26" value="" style="whiteSpace=wrap;html=1;aspect=fixed;" vertex="1" parent="1">
          <mxGeometry x="110" y="180" width="80" height="80" as="geometry" />
        </mxCell>
        <mxCell id="uGX6nD3mYrhn2c0A557F-27" value="" style="whiteSpace=wrap;html=1;aspect=fixed;" vertex="1" parent="1">
          <mxGeometry x="190" y="180" width="80" height="80" as="geometry" />
        </mxCell>
        <mxCell id="uGX6nD3mYrhn2c0A557F-28" value="" style="whiteSpace=wrap;html=1;aspect=fixed;" vertex="1" parent="1">
          <mxGeometry x="270" y="180" width="80" height="80" as="geometry" />
        </mxCell>
        <mxCell id="uGX6nD3mYrhn2c0A557F-29" value="" style="whiteSpace=wrap;html=1;aspect=fixed;" vertex="1" parent="1">
          <mxGeometry x="350" y="180" width="80" height="80" as="geometry" />
        </mxCell>
        <mxCell id="uGX6nD3mYrhn2c0A557F-30" value="" style="whiteSpace=wrap;html=1;aspect=fixed;" vertex="1" parent="1">
          <mxGeometry x="430" y="180" width="80" height="80" as="geometry" />
        </mxCell>
        <mxCell id="uGX6nD3mYrhn2c0A557F-31" value="" style="whiteSpace=wrap;html=1;aspect=fixed;" vertex="1" parent="1">
          <mxGeometry x="510" y="180" width="80" height="80" as="geometry" />
        </mxCell>
        <mxCell id="uGX6nD3mYrhn2c0A557F-32" value="" style="whiteSpace=wrap;html=1;aspect=fixed;" vertex="1" parent="1">
          <mxGeometry x="590" y="180" width="80" height="80" as="geometry" />
        </mxCell>
        <mxCell id="uGX6nD3mYrhn2c0A557F-33" value="" style="whiteSpace=wrap;html=1;aspect=fixed;" vertex="1" parent="1">
          <mxGeometry x="110" y="260" width="80" height="80" as="geometry" />
        </mxCell>
        <mxCell id="uGX6nD3mYrhn2c0A557F-34" value="" style="whiteSpace=wrap;html=1;aspect=fixed;" vertex="1" parent="1">
          <mxGeometry x="190" y="260" width="80" height="80" as="geometry" />
        </mxCell>
        <mxCell id="uGX6nD3mYrhn2c0A557F-35" value="" style="whiteSpace=wrap;html=1;aspect=fixed;" vertex="1" parent="1">
          <mxGeometry x="270" y="260" width="80" height="80" as="geometry" />
        </mxCell>
        <mxCell id="uGX6nD3mYrhn2c0A557F-36" value="" style="whiteSpace=wrap;html=1;aspect=fixed;" vertex="1" parent="1">
          <mxGeometry x="350" y="260" width="80" height="80" as="geometry" />
        </mxCell>
        <mxCell id="uGX6nD3mYrhn2c0A557F-37" value="" style="whiteSpace=wrap;html=1;aspect=fixed;" vertex="1" parent="1">
          <mxGeometry x="430" y="260" width="80" height="80" as="geometry" />
        </mxCell>
        <mxCell id="uGX6nD3mYrhn2c0A557F-38" value="" style="whiteSpace=wrap;html=1;aspect=fixed;" vertex="1" parent="1">
          <mxGeometry x="510" y="260" width="80" height="80" as="geometry" />
        </mxCell>
        <mxCell id="uGX6nD3mYrhn2c0A557F-39" value="" style="whiteSpace=wrap;html=1;aspect=fixed;" vertex="1" parent="1">
          <mxGeometry x="590" y="260" width="80" height="80" as="geometry" />
        </mxCell>
        <mxCell id="uGX6nD3mYrhn2c0A557F-48" value="" style="whiteSpace=wrap;html=1;aspect=fixed;" vertex="1" parent="1">
          <mxGeometry x="110" y="340" width="80" height="80" as="geometry" />
        </mxCell>
        <mxCell id="uGX6nD3mYrhn2c0A557F-49" value="" style="whiteSpace=wrap;html=1;aspect=fixed;" vertex="1" parent="1">
          <mxGeometry x="190" y="340" width="80" height="80" as="geometry" />
        </mxCell>
        <mxCell id="uGX6nD3mYrhn2c0A557F-50" value="" style="whiteSpace=wrap;html=1;aspect=fixed;" vertex="1" parent="1">
          <mxGeometry x="270" y="340" width="80" height="80" as="geometry" />
        </mxCell>
        <mxCell id="uGX6nD3mYrhn2c0A557F-51" value="" style="whiteSpace=wrap;html=1;aspect=fixed;" vertex="1" parent="1">
          <mxGeometry x="350" y="340" width="80" height="80" as="geometry" />
        </mxCell>
        <mxCell id="uGX6nD3mYrhn2c0A557F-52" value="" style="whiteSpace=wrap;html=1;aspect=fixed;" vertex="1" parent="1">
          <mxGeometry x="430" y="340" width="80" height="80" as="geometry" />
        </mxCell>
        <mxCell id="uGX6nD3mYrhn2c0A557F-53" value="" style="whiteSpace=wrap;html=1;aspect=fixed;" vertex="1" parent="1">
          <mxGeometry x="510" y="340" width="80" height="80" as="geometry" />
        </mxCell>
        <mxCell id="uGX6nD3mYrhn2c0A557F-54" value="" style="whiteSpace=wrap;html=1;aspect=fixed;" vertex="1" parent="1">
          <mxGeometry x="590" y="340" width="80" height="80" as="geometry" />
        </mxCell>
        <mxCell id="uGX6nD3mYrhn2c0A557F-55" value="" style="whiteSpace=wrap;html=1;aspect=fixed;" vertex="1" parent="1">
          <mxGeometry x="110" y="420" width="80" height="80" as="geometry" />
        </mxCell>
        <mxCell id="uGX6nD3mYrhn2c0A557F-56" value="" style="whiteSpace=wrap;html=1;aspect=fixed;" vertex="1" parent="1">
          <mxGeometry x="190" y="420" width="80" height="80" as="geometry" />
        </mxCell>
        <mxCell id="uGX6nD3mYrhn2c0A557F-57" value="" style="whiteSpace=wrap;html=1;aspect=fixed;" vertex="1" parent="1">
          <mxGeometry x="270" y="420" width="80" height="80" as="geometry" />
        </mxCell>
        <mxCell id="uGX6nD3mYrhn2c0A557F-58" value="" style="whiteSpace=wrap;html=1;aspect=fixed;" vertex="1" parent="1">
          <mxGeometry x="350" y="420" width="80" height="80" as="geometry" />
        </mxCell>
        <mxCell id="uGX6nD3mYrhn2c0A557F-59" value="" style="whiteSpace=wrap;html=1;aspect=fixed;" vertex="1" parent="1">
          <mxGeometry x="430" y="420" width="80" height="80" as="geometry" />
        </mxCell>
        <mxCell id="uGX6nD3mYrhn2c0A557F-60" value="" style="whiteSpace=wrap;html=1;aspect=fixed;" vertex="1" parent="1">
          <mxGeometry x="510" y="420" width="80" height="80" as="geometry" />
        </mxCell>
        <mxCell id="uGX6nD3mYrhn2c0A557F-61" value="" style="whiteSpace=wrap;html=1;aspect=fixed;" vertex="1" parent="1">
          <mxGeometry x="590" y="420" width="80" height="80" as="geometry" />
        </mxCell>
        <mxCell id="uGX6nD3mYrhn2c0A557F-62" value="" style="whiteSpace=wrap;html=1;aspect=fixed;" vertex="1" parent="1">
          <mxGeometry x="110" y="500" width="80" height="80" as="geometry" />
        </mxCell>
        <mxCell id="uGX6nD3mYrhn2c0A557F-63" value="" style="whiteSpace=wrap;html=1;aspect=fixed;" vertex="1" parent="1">
          <mxGeometry x="190" y="500" width="80" height="80" as="geometry" />
        </mxCell>
        <mxCell id="uGX6nD3mYrhn2c0A557F-65" value="" style="whiteSpace=wrap;html=1;aspect=fixed;" vertex="1" parent="1">
          <mxGeometry x="270" y="500" width="80" height="80" as="geometry" />
        </mxCell>
        <mxCell id="uGX6nD3mYrhn2c0A557F-66" value="" style="whiteSpace=wrap;html=1;aspect=fixed;" vertex="1" parent="1">
          <mxGeometry x="350" y="500" width="80" height="80" as="geometry" />
        </mxCell>
        <mxCell id="uGX6nD3mYrhn2c0A557F-67" value="" style="whiteSpace=wrap;html=1;aspect=fixed;" vertex="1" parent="1">
          <mxGeometry x="430" y="500" width="80" height="80" as="geometry" />
        </mxCell>
        <mxCell id="uGX6nD3mYrhn2c0A557F-68" value="" style="whiteSpace=wrap;html=1;aspect=fixed;" vertex="1" parent="1">
          <mxGeometry x="510" y="500" width="80" height="80" as="geometry" />
        </mxCell>
        <mxCell id="uGX6nD3mYrhn2c0A557F-69" value="" style="whiteSpace=wrap;html=1;aspect=fixed;" vertex="1" parent="1">
          <mxGeometry x="590" y="500" width="80" height="80" as="geometry" />
        </mxCell>
        <mxCell id="uGX6nD3mYrhn2c0A557F-70" value="" style="whiteSpace=wrap;html=1;aspect=fixed;" vertex="1" parent="1">
          <mxGeometry x="110" y="580" width="80" height="80" as="geometry" />
        </mxCell>
        <mxCell id="uGX6nD3mYrhn2c0A557F-71" value="" style="whiteSpace=wrap;html=1;aspect=fixed;" vertex="1" parent="1">
          <mxGeometry x="190" y="580" width="80" height="80" as="geometry" />
        </mxCell>
        <mxCell id="uGX6nD3mYrhn2c0A557F-72" value="" style="whiteSpace=wrap;html=1;aspect=fixed;" vertex="1" parent="1">
          <mxGeometry x="270" y="580" width="80" height="80" as="geometry" />
        </mxCell>
        <mxCell id="uGX6nD3mYrhn2c0A557F-73" value="" style="whiteSpace=wrap;html=1;aspect=fixed;" vertex="1" parent="1">
          <mxGeometry x="350" y="580" width="80" height="80" as="geometry" />
        </mxCell>
        <mxCell id="uGX6nD3mYrhn2c0A557F-74" value="" style="whiteSpace=wrap;html=1;aspect=fixed;" vertex="1" parent="1">
          <mxGeometry x="430" y="580" width="80" height="80" as="geometry" />
        </mxCell>
        <mxCell id="uGX6nD3mYrhn2c0A557F-75" value="" style="whiteSpace=wrap;html=1;aspect=fixed;" vertex="1" parent="1">
          <mxGeometry x="510" y="580" width="80" height="80" as="geometry" />
        </mxCell>
        <mxCell id="uGX6nD3mYrhn2c0A557F-76" value="" style="whiteSpace=wrap;html=1;aspect=fixed;" vertex="1" parent="1">
          <mxGeometry x="590" y="580" width="80" height="80" as="geometry" />
        </mxCell>
      </root>
    </mxGraphModel>
  </diagram>
  <diagram id="Mkaa1s9cl1DF-QLGTgI2" name="Page-2">
    <mxGraphModel dx="1038" dy="539" grid="1" gridSize="10" guides="1" tooltips="1" connect="1" arrows="1" fold="1" page="1" pageScale="1" pageWidth="827" pageHeight="1169" math="0" shadow="0">
      <root>
        <mxCell id="1wF73vjMU8yTaYhbSZhh-0" />
        <mxCell id="1wF73vjMU8yTaYhbSZhh-1" parent="1wF73vjMU8yTaYhbSZhh-0" />
        <mxCell id="VuDDOw4ai3HrQVPnYvmQ-0" value="" style="whiteSpace=wrap;html=1;aspect=fixed;" vertex="1" parent="1wF73vjMU8yTaYhbSZhh-1">
          <mxGeometry x="30" y="20" width="640" height="640" as="geometry" />
        </mxCell>
        <mxCell id="VuDDOw4ai3HrQVPnYvmQ-1" value="" style="whiteSpace=wrap;html=1;aspect=fixed;" vertex="1" parent="1wF73vjMU8yTaYhbSZhh-1">
          <mxGeometry x="30" y="20" width="80" height="80" as="geometry" />
        </mxCell>
        <mxCell id="VuDDOw4ai3HrQVPnYvmQ-2" value="" style="whiteSpace=wrap;html=1;aspect=fixed;" vertex="1" parent="1wF73vjMU8yTaYhbSZhh-1">
          <mxGeometry x="110" y="20" width="80" height="80" as="geometry" />
        </mxCell>
        <mxCell id="VuDDOw4ai3HrQVPnYvmQ-3" value="" style="whiteSpace=wrap;html=1;aspect=fixed;" vertex="1" parent="1wF73vjMU8yTaYhbSZhh-1">
          <mxGeometry x="190" y="20" width="80" height="80" as="geometry" />
        </mxCell>
        <mxCell id="VuDDOw4ai3HrQVPnYvmQ-4" value="" style="whiteSpace=wrap;html=1;aspect=fixed;" vertex="1" parent="1wF73vjMU8yTaYhbSZhh-1">
          <mxGeometry x="270" y="20" width="80" height="80" as="geometry" />
        </mxCell>
        <mxCell id="VuDDOw4ai3HrQVPnYvmQ-5" value="" style="whiteSpace=wrap;html=1;aspect=fixed;" vertex="1" parent="1wF73vjMU8yTaYhbSZhh-1">
          <mxGeometry x="350" y="20" width="80" height="80" as="geometry" />
        </mxCell>
        <mxCell id="VuDDOw4ai3HrQVPnYvmQ-6" value="" style="whiteSpace=wrap;html=1;aspect=fixed;" vertex="1" parent="1wF73vjMU8yTaYhbSZhh-1">
          <mxGeometry x="430" y="20" width="80" height="80" as="geometry" />
        </mxCell>
        <mxCell id="VuDDOw4ai3HrQVPnYvmQ-7" value="" style="whiteSpace=wrap;html=1;aspect=fixed;" vertex="1" parent="1wF73vjMU8yTaYhbSZhh-1">
          <mxGeometry x="510" y="20" width="80" height="80" as="geometry" />
        </mxCell>
        <mxCell id="VuDDOw4ai3HrQVPnYvmQ-8" value="" style="whiteSpace=wrap;html=1;aspect=fixed;" vertex="1" parent="1wF73vjMU8yTaYhbSZhh-1">
          <mxGeometry x="590" y="20" width="80" height="80" as="geometry" />
        </mxCell>
        <mxCell id="VuDDOw4ai3HrQVPnYvmQ-9" value="" style="whiteSpace=wrap;html=1;aspect=fixed;" vertex="1" parent="1wF73vjMU8yTaYhbSZhh-1">
          <mxGeometry x="30" y="100" width="80" height="80" as="geometry" />
        </mxCell>
        <mxCell id="VuDDOw4ai3HrQVPnYvmQ-10" value="" style="whiteSpace=wrap;html=1;aspect=fixed;" vertex="1" parent="1wF73vjMU8yTaYhbSZhh-1">
          <mxGeometry x="30" y="180" width="80" height="80" as="geometry" />
        </mxCell>
        <mxCell id="VuDDOw4ai3HrQVPnYvmQ-11" value="" style="whiteSpace=wrap;html=1;aspect=fixed;" vertex="1" parent="1wF73vjMU8yTaYhbSZhh-1">
          <mxGeometry x="30" y="260" width="80" height="80" as="geometry" />
        </mxCell>
        <mxCell id="VuDDOw4ai3HrQVPnYvmQ-12" value="" style="whiteSpace=wrap;html=1;aspect=fixed;" vertex="1" parent="1wF73vjMU8yTaYhbSZhh-1">
          <mxGeometry x="30" y="340" width="80" height="80" as="geometry" />
        </mxCell>
        <mxCell id="VuDDOw4ai3HrQVPnYvmQ-13" value="" style="whiteSpace=wrap;html=1;aspect=fixed;" vertex="1" parent="1wF73vjMU8yTaYhbSZhh-1">
          <mxGeometry x="30" y="420" width="80" height="80" as="geometry" />
        </mxCell>
        <mxCell id="VuDDOw4ai3HrQVPnYvmQ-14" value="" style="whiteSpace=wrap;html=1;aspect=fixed;" vertex="1" parent="1wF73vjMU8yTaYhbSZhh-1">
          <mxGeometry x="30" y="500" width="80" height="80" as="geometry" />
        </mxCell>
        <mxCell id="VuDDOw4ai3HrQVPnYvmQ-15" value="" style="whiteSpace=wrap;html=1;aspect=fixed;" vertex="1" parent="1wF73vjMU8yTaYhbSZhh-1">
          <mxGeometry x="30" y="580" width="80" height="80" as="geometry" />
        </mxCell>
        <mxCell id="VuDDOw4ai3HrQVPnYvmQ-16" value="" style="whiteSpace=wrap;html=1;aspect=fixed;" vertex="1" parent="1wF73vjMU8yTaYhbSZhh-1">
          <mxGeometry x="110" y="100" width="80" height="80" as="geometry" />
        </mxCell>
        <mxCell id="VuDDOw4ai3HrQVPnYvmQ-17" value="" style="whiteSpace=wrap;html=1;aspect=fixed;" vertex="1" parent="1wF73vjMU8yTaYhbSZhh-1">
          <mxGeometry x="190" y="100" width="80" height="80" as="geometry" />
        </mxCell>
        <mxCell id="VuDDOw4ai3HrQVPnYvmQ-18" value="" style="whiteSpace=wrap;html=1;aspect=fixed;" vertex="1" parent="1wF73vjMU8yTaYhbSZhh-1">
          <mxGeometry x="270" y="100" width="80" height="80" as="geometry" />
        </mxCell>
        <mxCell id="VuDDOw4ai3HrQVPnYvmQ-19" value="" style="whiteSpace=wrap;html=1;aspect=fixed;" vertex="1" parent="1wF73vjMU8yTaYhbSZhh-1">
          <mxGeometry x="350" y="100" width="80" height="80" as="geometry" />
        </mxCell>
        <mxCell id="VuDDOw4ai3HrQVPnYvmQ-20" value="" style="whiteSpace=wrap;html=1;aspect=fixed;" vertex="1" parent="1wF73vjMU8yTaYhbSZhh-1">
          <mxGeometry x="430" y="100" width="80" height="80" as="geometry" />
        </mxCell>
        <mxCell id="VuDDOw4ai3HrQVPnYvmQ-21" value="" style="whiteSpace=wrap;html=1;aspect=fixed;" vertex="1" parent="1wF73vjMU8yTaYhbSZhh-1">
          <mxGeometry x="510" y="100" width="80" height="80" as="geometry" />
        </mxCell>
        <mxCell id="VuDDOw4ai3HrQVPnYvmQ-22" value="" style="whiteSpace=wrap;html=1;aspect=fixed;" vertex="1" parent="1wF73vjMU8yTaYhbSZhh-1">
          <mxGeometry x="590" y="100" width="80" height="80" as="geometry" />
        </mxCell>
        <mxCell id="VuDDOw4ai3HrQVPnYvmQ-23" value="" style="whiteSpace=wrap;html=1;aspect=fixed;" vertex="1" parent="1wF73vjMU8yTaYhbSZhh-1">
          <mxGeometry x="110" y="180" width="80" height="80" as="geometry" />
        </mxCell>
        <mxCell id="VuDDOw4ai3HrQVPnYvmQ-24" value="" style="whiteSpace=wrap;html=1;aspect=fixed;" vertex="1" parent="1wF73vjMU8yTaYhbSZhh-1">
          <mxGeometry x="190" y="180" width="80" height="80" as="geometry" />
        </mxCell>
        <mxCell id="VuDDOw4ai3HrQVPnYvmQ-25" value="" style="whiteSpace=wrap;html=1;aspect=fixed;" vertex="1" parent="1wF73vjMU8yTaYhbSZhh-1">
          <mxGeometry x="270" y="180" width="80" height="80" as="geometry" />
        </mxCell>
        <mxCell id="VuDDOw4ai3HrQVPnYvmQ-26" value="" style="whiteSpace=wrap;html=1;aspect=fixed;" vertex="1" parent="1wF73vjMU8yTaYhbSZhh-1">
          <mxGeometry x="350" y="180" width="80" height="80" as="geometry" />
        </mxCell>
        <mxCell id="VuDDOw4ai3HrQVPnYvmQ-27" value="" style="whiteSpace=wrap;html=1;aspect=fixed;" vertex="1" parent="1wF73vjMU8yTaYhbSZhh-1">
          <mxGeometry x="430" y="180" width="80" height="80" as="geometry" />
        </mxCell>
        <mxCell id="VuDDOw4ai3HrQVPnYvmQ-28" value="" style="whiteSpace=wrap;html=1;aspect=fixed;" vertex="1" parent="1wF73vjMU8yTaYhbSZhh-1">
          <mxGeometry x="510" y="180" width="80" height="80" as="geometry" />
        </mxCell>
        <mxCell id="VuDDOw4ai3HrQVPnYvmQ-29" value="" style="whiteSpace=wrap;html=1;aspect=fixed;" vertex="1" parent="1wF73vjMU8yTaYhbSZhh-1">
          <mxGeometry x="590" y="180" width="80" height="80" as="geometry" />
        </mxCell>
        <mxCell id="VuDDOw4ai3HrQVPnYvmQ-30" value="" style="whiteSpace=wrap;html=1;aspect=fixed;" vertex="1" parent="1wF73vjMU8yTaYhbSZhh-1">
          <mxGeometry x="110" y="260" width="80" height="80" as="geometry" />
        </mxCell>
        <mxCell id="VuDDOw4ai3HrQVPnYvmQ-31" value="" style="whiteSpace=wrap;html=1;aspect=fixed;" vertex="1" parent="1wF73vjMU8yTaYhbSZhh-1">
          <mxGeometry x="190" y="260" width="80" height="80" as="geometry" />
        </mxCell>
        <mxCell id="VuDDOw4ai3HrQVPnYvmQ-32" value="" style="whiteSpace=wrap;html=1;aspect=fixed;" vertex="1" parent="1wF73vjMU8yTaYhbSZhh-1">
          <mxGeometry x="270" y="260" width="80" height="80" as="geometry" />
        </mxCell>
        <mxCell id="VuDDOw4ai3HrQVPnYvmQ-33" value="" style="whiteSpace=wrap;html=1;aspect=fixed;" vertex="1" parent="1wF73vjMU8yTaYhbSZhh-1">
          <mxGeometry x="350" y="260" width="80" height="80" as="geometry" />
        </mxCell>
        <mxCell id="VuDDOw4ai3HrQVPnYvmQ-34" value="" style="whiteSpace=wrap;html=1;aspect=fixed;" vertex="1" parent="1wF73vjMU8yTaYhbSZhh-1">
          <mxGeometry x="430" y="260" width="80" height="80" as="geometry" />
        </mxCell>
        <mxCell id="VuDDOw4ai3HrQVPnYvmQ-35" value="" style="whiteSpace=wrap;html=1;aspect=fixed;" vertex="1" parent="1wF73vjMU8yTaYhbSZhh-1">
          <mxGeometry x="510" y="260" width="80" height="80" as="geometry" />
        </mxCell>
        <mxCell id="VuDDOw4ai3HrQVPnYvmQ-36" value="" style="whiteSpace=wrap;html=1;aspect=fixed;" vertex="1" parent="1wF73vjMU8yTaYhbSZhh-1">
          <mxGeometry x="590" y="260" width="80" height="80" as="geometry" />
        </mxCell>
        <mxCell id="VuDDOw4ai3HrQVPnYvmQ-37" value="" style="whiteSpace=wrap;html=1;aspect=fixed;" vertex="1" parent="1wF73vjMU8yTaYhbSZhh-1">
          <mxGeometry x="110" y="340" width="80" height="80" as="geometry" />
        </mxCell>
        <mxCell id="VuDDOw4ai3HrQVPnYvmQ-38" value="" style="whiteSpace=wrap;html=1;aspect=fixed;" vertex="1" parent="1wF73vjMU8yTaYhbSZhh-1">
          <mxGeometry x="190" y="340" width="80" height="80" as="geometry" />
        </mxCell>
        <mxCell id="VuDDOw4ai3HrQVPnYvmQ-39" value="" style="whiteSpace=wrap;html=1;aspect=fixed;" vertex="1" parent="1wF73vjMU8yTaYhbSZhh-1">
          <mxGeometry x="270" y="340" width="80" height="80" as="geometry" />
        </mxCell>
        <mxCell id="VuDDOw4ai3HrQVPnYvmQ-40" value="" style="whiteSpace=wrap;html=1;aspect=fixed;" vertex="1" parent="1wF73vjMU8yTaYhbSZhh-1">
          <mxGeometry x="350" y="340" width="80" height="80" as="geometry" />
        </mxCell>
        <mxCell id="VuDDOw4ai3HrQVPnYvmQ-41" value="" style="whiteSpace=wrap;html=1;aspect=fixed;" vertex="1" parent="1wF73vjMU8yTaYhbSZhh-1">
          <mxGeometry x="430" y="340" width="80" height="80" as="geometry" />
        </mxCell>
        <mxCell id="VuDDOw4ai3HrQVPnYvmQ-42" value="" style="whiteSpace=wrap;html=1;aspect=fixed;" vertex="1" parent="1wF73vjMU8yTaYhbSZhh-1">
          <mxGeometry x="510" y="340" width="80" height="80" as="geometry" />
        </mxCell>
        <mxCell id="VuDDOw4ai3HrQVPnYvmQ-43" value="" style="whiteSpace=wrap;html=1;aspect=fixed;" vertex="1" parent="1wF73vjMU8yTaYhbSZhh-1">
          <mxGeometry x="590" y="340" width="80" height="80" as="geometry" />
        </mxCell>
        <mxCell id="VuDDOw4ai3HrQVPnYvmQ-44" value="" style="whiteSpace=wrap;html=1;aspect=fixed;" vertex="1" parent="1wF73vjMU8yTaYhbSZhh-1">
          <mxGeometry x="110" y="420" width="80" height="80" as="geometry" />
        </mxCell>
        <mxCell id="VuDDOw4ai3HrQVPnYvmQ-45" value="" style="whiteSpace=wrap;html=1;aspect=fixed;" vertex="1" parent="1wF73vjMU8yTaYhbSZhh-1">
          <mxGeometry x="190" y="420" width="80" height="80" as="geometry" />
        </mxCell>
        <mxCell id="VuDDOw4ai3HrQVPnYvmQ-46" value="" style="whiteSpace=wrap;html=1;aspect=fixed;" vertex="1" parent="1wF73vjMU8yTaYhbSZhh-1">
          <mxGeometry x="270" y="420" width="80" height="80" as="geometry" />
        </mxCell>
        <mxCell id="VuDDOw4ai3HrQVPnYvmQ-47" value="" style="whiteSpace=wrap;html=1;aspect=fixed;" vertex="1" parent="1wF73vjMU8yTaYhbSZhh-1">
          <mxGeometry x="350" y="420" width="80" height="80" as="geometry" />
        </mxCell>
        <mxCell id="VuDDOw4ai3HrQVPnYvmQ-48" value="" style="whiteSpace=wrap;html=1;aspect=fixed;" vertex="1" parent="1wF73vjMU8yTaYhbSZhh-1">
          <mxGeometry x="430" y="420" width="80" height="80" as="geometry" />
        </mxCell>
        <mxCell id="VuDDOw4ai3HrQVPnYvmQ-49" value="" style="whiteSpace=wrap;html=1;aspect=fixed;" vertex="1" parent="1wF73vjMU8yTaYhbSZhh-1">
          <mxGeometry x="510" y="420" width="80" height="80" as="geometry" />
        </mxCell>
        <mxCell id="VuDDOw4ai3HrQVPnYvmQ-50" value="" style="whiteSpace=wrap;html=1;aspect=fixed;" vertex="1" parent="1wF73vjMU8yTaYhbSZhh-1">
          <mxGeometry x="590" y="420" width="80" height="80" as="geometry" />
        </mxCell>
        <mxCell id="VuDDOw4ai3HrQVPnYvmQ-51" value="" style="whiteSpace=wrap;html=1;aspect=fixed;" vertex="1" parent="1wF73vjMU8yTaYhbSZhh-1">
          <mxGeometry x="110" y="500" width="80" height="80" as="geometry" />
        </mxCell>
        <mxCell id="VuDDOw4ai3HrQVPnYvmQ-52" value="" style="whiteSpace=wrap;html=1;aspect=fixed;" vertex="1" parent="1wF73vjMU8yTaYhbSZhh-1">
          <mxGeometry x="190" y="500" width="80" height="80" as="geometry" />
        </mxCell>
        <mxCell id="VuDDOw4ai3HrQVPnYvmQ-53" value="" style="whiteSpace=wrap;html=1;aspect=fixed;" vertex="1" parent="1wF73vjMU8yTaYhbSZhh-1">
          <mxGeometry x="270" y="500" width="80" height="80" as="geometry" />
        </mxCell>
        <mxCell id="VuDDOw4ai3HrQVPnYvmQ-54" value="" style="whiteSpace=wrap;html=1;aspect=fixed;" vertex="1" parent="1wF73vjMU8yTaYhbSZhh-1">
          <mxGeometry x="350" y="500" width="80" height="80" as="geometry" />
        </mxCell>
        <mxCell id="VuDDOw4ai3HrQVPnYvmQ-55" value="" style="whiteSpace=wrap;html=1;aspect=fixed;" vertex="1" parent="1wF73vjMU8yTaYhbSZhh-1">
          <mxGeometry x="430" y="500" width="80" height="80" as="geometry" />
        </mxCell>
        <mxCell id="VuDDOw4ai3HrQVPnYvmQ-56" value="" style="whiteSpace=wrap;html=1;aspect=fixed;" vertex="1" parent="1wF73vjMU8yTaYhbSZhh-1">
          <mxGeometry x="510" y="500" width="80" height="80" as="geometry" />
        </mxCell>
        <mxCell id="VuDDOw4ai3HrQVPnYvmQ-57" value="" style="whiteSpace=wrap;html=1;aspect=fixed;" vertex="1" parent="1wF73vjMU8yTaYhbSZhh-1">
          <mxGeometry x="590" y="500" width="80" height="80" as="geometry" />
        </mxCell>
        <mxCell id="VuDDOw4ai3HrQVPnYvmQ-58" value="" style="whiteSpace=wrap;html=1;aspect=fixed;" vertex="1" parent="1wF73vjMU8yTaYhbSZhh-1">
          <mxGeometry x="110" y="580" width="80" height="80" as="geometry" />
        </mxCell>
        <mxCell id="VuDDOw4ai3HrQVPnYvmQ-59" value="" style="whiteSpace=wrap;html=1;aspect=fixed;" vertex="1" parent="1wF73vjMU8yTaYhbSZhh-1">
          <mxGeometry x="190" y="580" width="80" height="80" as="geometry" />
        </mxCell>
        <mxCell id="VuDDOw4ai3HrQVPnYvmQ-60" value="" style="whiteSpace=wrap;html=1;aspect=fixed;" vertex="1" parent="1wF73vjMU8yTaYhbSZhh-1">
          <mxGeometry x="270" y="580" width="80" height="80" as="geometry" />
        </mxCell>
        <mxCell id="VuDDOw4ai3HrQVPnYvmQ-61" value="" style="whiteSpace=wrap;html=1;aspect=fixed;" vertex="1" parent="1wF73vjMU8yTaYhbSZhh-1">
          <mxGeometry x="350" y="580" width="80" height="80" as="geometry" />
        </mxCell>
        <mxCell id="VuDDOw4ai3HrQVPnYvmQ-62" value="" style="whiteSpace=wrap;html=1;aspect=fixed;" vertex="1" parent="1wF73vjMU8yTaYhbSZhh-1">
          <mxGeometry x="430" y="580" width="80" height="80" as="geometry" />
        </mxCell>
        <mxCell id="VuDDOw4ai3HrQVPnYvmQ-63" value="" style="whiteSpace=wrap;html=1;aspect=fixed;" vertex="1" parent="1wF73vjMU8yTaYhbSZhh-1">
          <mxGeometry x="510" y="580" width="80" height="80" as="geometry" />
        </mxCell>
        <mxCell id="VuDDOw4ai3HrQVPnYvmQ-64" value="" style="whiteSpace=wrap;html=1;aspect=fixed;" vertex="1" parent="1wF73vjMU8yTaYhbSZhh-1">
          <mxGeometry x="590" y="580" width="80" height="80" as="geometry" />
        </mxCell>
      </root>
    </mxGraphModel>
  </diagram>
</mxfile>
